Coordinates
version=1
nRows=13
nColumns=36
inDegrees=yes

Units are S.I. units (second, meters, Newtons, ...)
If the header above contains a line with 'inDegrees', this indicates whether rotational values are in degrees (yes) or radians (no).

endheader
time	pelvis_tilt	pelvis_list	pelvis_rotation	pelvis_tx	pelvis_ty	pelvis_tz	hip_flexion_r	hip_adduction_r	hip_rotation_r	knee_angle_r	knee_angle_r_beta	ankle_angle_r	subtalar_angle_r	mtp_angle_r	hip_flexion_l	hip_adduction_l	hip_rotation_l	knee_angle_l	knee_angle_l_beta	ankle_angle_l	subtalar_angle_l	mtp_angle_l	lumbar_extension	lumbar_bending	lumbar_rotation	arm_flex_r	arm_add_r	arm_rot_r	elbow_flex_r	pro_sup_r	arm_flex_l	arm_add_l	arm_rot_l	elbow_flex_l	pro_sup_l
      5.03333330	      6.11264824	     -7.75494676	     -6.67570081	      0.73320972	      1.00485697	      0.28809101	     25.71721226	     -1.30904232	      1.21424938	     23.94213874	      0.41786915	      0.92145516	     -7.54254158	     -7.49999987	      1.31378532	      0.58229086	      8.49367150	     14.34826928	      0.25042454	     12.80951874	     -7.20362191	     -7.49999987	    -25.09335712	      6.86909747	     -1.82613405	     35.27598771	     -3.75835737	     61.08461469	    110.65342482	     86.69828630	     37.51151415	     -8.99560612	     55.10839987	    113.73886328	     91.51049097
      5.05000000	      5.93580891	     -7.70717113	     -6.47889804	      0.72382345	      1.00592609	      0.28804342	     25.77344575	     -1.51296796	      1.02884661	     24.03427578	      0.41947725	      0.91895070	     -7.36809622	     -7.49999987	      1.88527070	      0.64701434	      8.69855506	     14.84293887	      0.25905815	     13.31478400	     -6.79038019	     -7.49999987	    -25.33936321	      6.56177774	     -1.72913606	     35.70991903	     -3.73602942	     61.08727788	    110.80343452	     86.81927083	     37.84907654	     -9.15379049	     55.64736720	    114.10528224	     91.60854763
      5.06666670	      5.79728973	     -7.81860861	     -6.39979144	      0.72954716	      1.00411494	      0.29065165	     25.73444255	     -1.45373444	      0.80537346	     24.04799034	      0.41971661	      1.01905965	     -7.44868268	     -7.49999987	      2.10180314	      0.49649986	      8.81470169	     15.01694462	      0.26209513	     13.67846677	     -6.63207133	     -7.49999987	    -25.31641393	      6.35157107	     -1.62679895	     35.75558328	     -3.46869193	     60.77779904	    110.84246451	     86.80515882	     37.99561193	     -9.08880730	     55.83828090	    114.16194832	     91.60597353
      5.08333330	      5.59576930	     -7.78283928	     -6.17338602	      0.72463460	      1.00807407	      0.28778136	     25.65345602	     -1.60801431	      0.47332813	     23.76596085	      0.41479427	      0.91010289	     -7.23137575	     -7.49999987	      2.57347592	      0.51820319	      8.98261902	     15.30997801	      0.26720952	     13.66290275	     -6.49775993	     -7.49999987	    -25.52153417	      6.08785379	     -1.57529814	     36.02564410	     -3.44648837	     60.88958423	    111.14564498	     86.81744366	     38.22557933	     -9.03775288	     56.19591682	    114.21424644	     91.59360374
      5.10000000	      5.34033261	     -7.94729448	     -5.96507360	      0.73071403	      1.00555297	      0.28998524	     25.42275629	     -1.48107299	      0.26357950	     23.38170710	      0.40808777	      0.95696167	     -7.26411865	     -7.49999987	      2.85287446	      0.29526595	      9.18926266	     15.44029630	      0.26948401	     13.79845347	     -6.37645268	     -7.49999987	    -25.38861011	      6.00693521	     -1.44353550	     35.98188865	     -3.39859792	     60.80897996	    111.54099436	     86.80252205	     38.10819962	     -8.85087366	     56.58456326	    114.29076631	     91.53904753
      5.11666670	      5.04139398	     -8.07722256	     -5.75355694	      0.73137422	      1.00562990	      0.28965428	     25.30897561	     -1.37646104	      0.22644084	     23.02889664	      0.40193007	      1.06447649	     -7.21205058	     -7.49999987	      3.13338553	      0.08263999	      9.45866463	     15.47429957	      0.27007748	     13.84148845	     -6.22262226	     -7.49999987	    -25.03246008	      5.89453543	     -1.18866205	     35.66468406	     -3.60594767	     60.59883816	    112.00038454	     85.43921436	     37.85631448	     -8.48959966	     56.87682472	    114.20367578	     89.92481785
      5.13333330	      4.71012200	     -8.13708729	     -5.53082164	      0.73219225	      1.00716927	      0.28943483	     25.29859891	     -1.37749448	      0.15805797	     22.83520330	      0.39854948	      1.26176426	     -6.89460620	     -7.49999987	      3.50823403	     -0.01320627	      9.84608325	     15.56897028	      0.27172979	     14.02270566	     -6.07345722	     -7.49999987	    -24.71987999	      5.81727057	     -1.21759465	     35.13026426	     -3.75169052	     60.53445704	    112.54539805	     84.22121735	     37.57345313	     -8.31682838	     57.14972389	    114.08884580	     88.65023529
      5.15000000	      4.76233710	     -8.42292621	     -5.35035340	      0.73762267	      1.00631905	      0.29155186	     24.77344506	     -1.09378296	      0.28179369	     22.56570737	      0.39384589	      1.56660828	     -6.92151156	     -7.49999987	      3.21666585	     -0.37210088	     10.01502813	     15.37471079	      0.26833932	     14.08160813	     -5.67789395	     -7.49999987	    -24.64027935	      5.79227485	     -1.00463762	     34.14631826	     -3.89283111	     60.02623573	    113.11492777	     85.32937842	     37.43126178	     -7.79036657	     57.72250771	    113.53992405	     89.63771689
      5.16666670	      4.69623835	     -8.56816703	     -5.24087911	      0.73798704	      1.00604779	      0.29153589	     24.57319410	     -0.94262172	      0.34565489	     22.47516533	      0.39226563	      1.80447128	     -7.03231639	     -7.49999987	      3.08159184	     -0.56839551	     10.20317572	     15.19080142	      0.26512950	     14.11706949	     -5.58619801	     -7.49999987	    -24.48855868	      5.77580692	     -0.95246467	     33.95528446	     -3.93687416	     60.35750376	    113.50516466	     84.33506343	     37.13834372	     -7.67058827	     57.99488240	    113.64383135	     88.43887446
      5.18333330	      4.85751692	     -8.75796961	     -4.97927027	      0.73815656	      1.00881418	      0.29124842	     23.87024853	     -0.79404142	      0.30748997	     22.02803665	      0.38446177	      1.89675760	     -6.93740229	     -7.49999987	      2.58998683	     -0.77970218	     10.45778998	     14.85521572	      0.25927243	     14.08528842	     -5.31121470	     -7.49999987	    -24.53664801	      5.84618523	     -0.92452542	     33.88268101	     -3.97148036	     60.29850666	    113.14659275	     84.64831165	     36.89512758	     -7.63941771	     57.93961625	    113.33105868	     88.61471011
      5.20000000	      4.85756791	     -8.83442196	     -4.77846927	      0.73856946	      1.00569976	      0.29111569	     23.53258526	     -0.72071586	      0.37071426	     21.78335704	      0.38019130	      1.95386543	     -7.01330071	     -7.49999987	      2.47087779	     -0.86997369	     10.61012713	     14.74933879	      0.25742452	     14.18929048	     -5.10662256	     -7.49999987	    -24.46202167	      5.74516451	     -0.96788491	     33.57628823	     -4.14658778	     60.01109979	    113.07521493	     86.06774634	     36.81814782	     -7.55891218	     57.71809146	    113.31002606	     89.45339889
      5.21666670	      4.86740435	     -8.99891444	     -4.60696447	      0.74411878	      1.00410441	      0.29288429	     23.28836692	     -0.52802192	      0.50221006	     21.86107322	      0.38154771	      2.20463462	     -7.15988237	     -7.49999987	      2.32554792	     -1.05156686	     10.70423394	     14.71102758	      0.25675587	     14.23171719	     -5.07516976	     -7.49999987	    -24.17922931	      5.74368946	     -1.28216933	     33.24093281	     -4.14435639	     60.08357292	    113.02209566	     86.08410518	     37.03085216	     -7.34432875	     57.65445245	    113.27712658	     89.45867844
      5.23333330	      4.98901581	     -9.13731590	     -4.33373867	      0.74418048	      1.00410378	      0.29270948	     22.98504839	     -0.40423062	      0.57292550	     21.89186779	      0.38208517	      2.34475624	     -7.46727225	     -7.49999987	      2.15176091	     -1.16995590	     10.95835201	     14.71666803	      0.25685431	     14.45450659	     -4.96782331	     -7.49999987	    -23.97534915	      5.70230034	     -1.24466222	     32.70353841	     -4.16076683	     59.82264634	    112.81841761	     84.61958802	     37.03623746	     -7.13214531	     57.90714398	    112.83867626	     87.84054950
